<?xml version="1.0" encoding="UTF-8" standalone="no"?>
<!DOCTYPE svg PUBLIC "-//W3C//DTD SVG 1.1//EN" "http://www.w3.org/Graphics/SVG/1.1/DTD/svg11.dtd">
<svg viewBox="0 0 206 168" version="1.1" xmlns="http://www.w3.org/2000/svg" xmlns:xlink="http://www.w3.org/1999/xlink" xml:space="preserve" xmlns:serif="http://www.serif.com/" style="fill-rule:evenodd;clip-rule:evenodd;stroke-linecap:round;stroke-linejoin:round;stroke-miterlimit:1.5;">
    <g transform="matrix(1,0,0,1,0,-366)">
        <g id="iPhone-5-SE" serif:id="iPhone 5/SE" transform="matrix(0.642789,0,0,0.29398,-1461.7,366.855)">
            <rect x="2274" y="0" width="320" height="568" style="fill:none;"/>
            <g transform="matrix(1.55572,0,0,3.4016,2179.45,-777.663)">
                <path d="M153.559,284C153.559,284 144.523,291.614 141.813,296.321C147.784,295.04 150.826,295.772 150.826,295.772L146.292,303.212C146.292,303.212 155.521,298.788 160,300.824" style="fill:none;stroke:black;stroke-width:2.7px;"/>
            </g>
            <g transform="matrix(1.55572,0,0,3.4016,2179.45,-777.663)">
                <path d="M152.123,305.536C152.123,305.536 154.709,313.543 150.254,327.811C145.825,341.998 154.335,356.053 164.703,356.48" style="fill:none;stroke:black;stroke-width:2.7px;"/>
            </g>
            <g transform="matrix(1.55572,0,0,3.4016,2179.45,-777.663)">
                <path d="M149.012,287.21C149.012,287.21 146.051,265.787 164.703,260.458C183.354,255.128 199.369,267.013 205.03,277.668C210.692,288.323 215.931,306.421 220.358,311.641" style="fill:none;stroke:black;stroke-width:2.7px;"/>
            </g>
            <g transform="matrix(1.55572,0,0,3.4016,2179.45,-777.663)">
                <path d="M131.246,272.389C129.096,273.022 126.756,272.566 125.127,270.979C122.649,268.565 122.745,264.443 125.34,261.78C127.935,259.116 132.053,258.913 134.53,261.326C136.9,263.634 136.915,267.506 134.642,270.169L138.135,275.355C140.134,275.577 141.688,277.239 141.688,279.253C141.688,281.418 139.891,283.176 137.678,283.176C135.465,283.176 133.669,281.418 133.669,279.253C133.669,278.429 133.929,277.663 134.374,277.032L131.246,272.389Z" style="fill:none;stroke:black;stroke-width:2.7px;"/>
            </g>
            <g transform="matrix(1.55572,0,0,3.4016,2179.45,-777.663)">
                <path d="M110.641,264.341L107.302,254.801L114.717,255.516L117.268,248.508L123.053,255.507" style="fill:none;stroke:black;stroke-width:2.7px;"/>
            </g>
            <g transform="matrix(1.55572,0,0,3.4016,2179.45,-777.663)">
                <path d="M132.329,303.786C131.559,303.096 134.698,305.717 135.039,306.022C137.076,307.845 139.225,310.116 141.813,311.151" style="fill:none;stroke:black;stroke-width:2.7px;"/>
            </g>
            <g transform="matrix(1.55572,0,0,3.4016,2179.45,-777.663)">
                <path d="M139.864,302.914C139.889,302.573 137.776,305.213 137.458,305.732C135.806,308.435 134.262,311.113 133.394,314.152" style="fill:none;stroke:black;stroke-width:2.7px;"/>
            </g>
            <g transform="matrix(1.55572,0,0,3.4016,2179.45,-777.663)">
                <path d="M123.35,352.509L123.35,357.754C123.35,361.432 123.762,365.106 123.888,368.783C123.908,369.356 124.345,373.356 123.35,373.356" style="fill:none;stroke:black;stroke-width:2.7px;"/>
            </g>
            <g transform="matrix(1.55572,0,0,3.4016,2179.45,-777.663)">
                <path d="M124.081,363.575C123.473,363.457 122.77,364.418 122.274,364.748C120.691,365.804 118.187,369.59 116.222,369.59" style="fill:none;stroke:black;stroke-width:2.7px;"/>
            </g>
            <g transform="matrix(1.55572,0,0,3.4016,2179.45,-777.663)">
                <path d="M124.049,363.503C123.467,363.096 126.344,365.561 126.578,365.824C127.412,366.762 130.075,368.988 130.075,370.397" style="fill:none;stroke:black;stroke-width:2.7px;"/>
            </g>
            <g transform="matrix(1.55572,0,0,3.4016,2179.45,-777.663)">
                <path d="M173.565,360.672C173.773,360.769 172.667,363.035 172.577,363.269C171.625,365.743 170.61,368.264 169.215,370.532" style="fill:none;stroke:black;stroke-width:2.7px;"/>
            </g>
            <g transform="matrix(1.55572,0,0,3.4016,2179.45,-777.663)">
                <path d="M169.503,372.195C169.471,371.889 169.618,373.465 169.618,373.76C169.618,375.185 170.291,379.634 170.291,379.543" style="fill:none;stroke:black;stroke-width:2.7px;"/>
            </g>
            <g transform="matrix(1.55572,0,0,3.4016,2179.45,-777.663)">
                <path d="M161.548,373.491C163.476,372.334 166.682,371.507 168.796,370.661" style="fill:none;stroke:black;stroke-width:2.7px;"/>
            </g>
            <g transform="matrix(1.55572,0,0,3.4016,2179.45,-777.663)">
                <path d="M169.88,371.466C169.789,371.471 171.863,372.401 172.577,372.818C174.14,373.73 176.405,374.628 177.688,375.911" style="fill:none;stroke:black;stroke-width:2.7px;"/>
            </g>
            <g transform="matrix(1.55572,0,0,3.4016,2179.45,-777.663)">
                <path d="M218.26,357.937C217.71,357.777 219.658,360.401 220.056,360.856C221.255,362.226 221.759,364.307 223.015,365.563" style="fill:none;stroke:black;stroke-width:2.7px;"/>
            </g>
            <g transform="matrix(1.55572,0,0,3.4016,2179.45,-777.663)">
                <path d="M223.089,365.704C223.217,365.406 222.88,366.238 222.88,366.639C222.88,367.336 222.792,368.092 222.746,368.791C222.617,370.721 222.477,372.638 222.477,374.575" style="fill:none;stroke:black;stroke-width:2.7px;"/>
            </g>
            <g transform="matrix(1.55572,0,0,3.4016,2179.45,-777.663)">
                <path d="M223.216,364.831C223.26,364.869 225.079,364.021 225.436,363.949C226.594,363.718 228.158,363.798 229.202,363.277" style="fill:none;stroke:black;stroke-width:2.7px;"/>
            </g>
            <g transform="matrix(1.55572,0,0,3.4016,2179.45,-777.663)">
                <path d="M223.711,365.971C223.678,366.153 224.737,367.449 224.898,367.85C225.682,369.809 226.55,372.278 227.722,374.037" style="fill:none;stroke:black;stroke-width:2.7px;"/>
            </g>
            <g transform="matrix(1.00869,2.03158,-1.06944,2.53855,2564.97,-765.2)">
                <path d="M106.202,315.913C106.202,315.913 104.674,319.348 108.928,325.515C113.183,331.682 121.329,329.693 121.329,329.693C121.329,329.693 122.532,321.172 124.894,314.587" style="fill:none;stroke:black;stroke-width:2.84px;"/>
            </g>
            <g transform="matrix(1.55572,0,0,3.4016,2179.45,-777.663)">
                <path d="M214.683,313.955C214.683,313.955 235.469,309.798 238.268,305.678C241.067,301.558 233.557,320.24 233.557,320.24C233.557,320.24 241.652,322.867 247.434,320.24C253.217,317.613 244.901,333.801 236.258,337.206" style="fill:none;stroke:black;stroke-width:2.7px;"/>
            </g>
            <g transform="matrix(1.55572,0,0,3.4016,2179.45,-777.663)">
                <path d="M164.703,279.708L172.92,272.553" style="fill:none;stroke:black;stroke-width:2.7px;"/>
            </g>
            <g transform="matrix(1.72813,-2.31602,1.06256,3.79042,1847.7,-481.362)">
                <ellipse cx="171.509" cy="281.049" rx="1.126" ry="1.889"/>
            </g>
            <g transform="matrix(1.55572,0,0,3.4016,2179.45,-777.663)">
                <path d="M152.858,348.627C145.137,348.674 140.764,351.132 133.65,351.602C113.623,352.925 97.77,342.232 91.352,320.608C84.934,298.984 96.507,277.751 107.402,267.895C118.297,258.039 135.744,244.952 150.181,255.011" style="fill:none;stroke:black;stroke-width:2.7px;"/>
            </g>
        </g>
    </g>
</svg>
