<?xml version="1.0" encoding="UTF-8" standalone="no"?>
<!DOCTYPE svg PUBLIC "-//W3C//DTD SVG 1.1//EN" "http://www.w3.org/Graphics/SVG/1.1/DTD/svg11.dtd">
<svg viewBox="0 0 166 206" version="1.1" xmlns="http://www.w3.org/2000/svg" xmlns:xlink="http://www.w3.org/1999/xlink" xml:space="preserve" xmlns:serif="http://www.serif.com/" style="fill-rule:evenodd;clip-rule:evenodd;stroke-linecap:round;stroke-linejoin:round;stroke-miterlimit:1.5;">
    <g transform="matrix(1,0,0,1,-319,0)">
        <g id="Skill" transform="matrix(0.516016,0,0,0.362236,128.433,0)">
            <rect x="370" y="0" width="320" height="568" style="fill:none;"/>
            <g transform="matrix(1.93792,0,0,2.76063,-384.731,-295.967)">
                <path d="M410.98,268.971C410.509,265.056 414.197,262.284 417.15,260.316C426.68,253.962 440.201,250.118 451.76,251.897C456.346,252.602 461.328,255.434 465.48,257.509C466.076,257.808 469.292,261.18 469.533,260.939C470.483,259.989 462.257,249.871 467.106,237.844C474.949,218.389 477.691,199.451 477.691,199.451C477.691,199.451 474.79,190.632 479.256,180.948C484.837,168.848 485.949,164.017 488.138,153.071C489.255,147.488 488.626,132.031 498.315,135.261C504.262,137.243 502.331,150.945 500.859,155.361C500.062,157.753 498.315,162.485 498.315,162.485C498.315,162.485 505.015,160.308 506.855,159.867C516.419,157.577 518.999,160.343 519.342,165.928C519.563,169.536 514.133,172.428 514.133,172.428C514.133,172.428 516.252,172.548 517.524,173.62C520.599,176.212 519.537,180.371 518.346,182.958C517.283,185.267 513.345,186.783 513.345,186.783C513.345,186.783 517.33,191.556 514.344,194.542C510.362,198.524 506.333,199.122 499.333,199.122C497.575,199.122 494.244,198.93 494.244,200.903" style="fill:none;stroke:black;stroke-width:2.7px;"/>
            </g>
            <g transform="matrix(1.93792,0,0,2.76063,-384.731,-295.967)">
                <path d="M411.764,291.517C415.147,293.991 419.711,293.628 423.698,293.99C434.114,294.937 443.936,294.372 454.255,292.743C462.201,291.488 470.105,289.404 477.952,287.443C482.329,286.348 497.761,281.399 498.531,281.206C501.769,280.397 505.523,279.203 507.885,276.841C511.244,273.483 506.209,263.512 504.455,260.004C503.701,258.495 501.649,250.26 501.649,249.402C501.649,241.796 501.48,234.501 500.402,226.953C499.544,220.95 494.477,210.602 494.477,205.75" style="fill:none;stroke:black;stroke-width:2.7px;"/>
            </g>
            <g transform="matrix(1.93792,0,0,2.76063,-384.731,-295.967)">
                <path d="M485.255,134.493C485.2,134.527 481.448,126.501 481.186,125.977" style="fill:none;stroke:black;stroke-width:2.7px;"/>
            </g>
            <g transform="matrix(1.93792,0,0,2.76063,-384.731,-295.967)">
                <path d="M498.49,129.034C497.931,131.306 501.8,120.506 501.8,122.846" style="fill:none;stroke:black;stroke-width:2.7px;"/>
            </g>
            <g transform="matrix(1.93792,0,0,2.76063,-384.731,-295.967)">
                <path d="M510.765,138.571C510.575,138.963 513.53,138.026 513.803,137.98C515.65,137.672 517.439,137.566 519.283,137.197" style="fill:none;stroke:black;stroke-width:2.7px;"/>
            </g>
        </g>
    </g>
</svg>
