<?xml version="1.0" encoding="UTF-8" standalone="no"?>
<!DOCTYPE svg PUBLIC "-//W3C//DTD SVG 1.1//EN" "http://www.w3.org/Graphics/SVG/1.1/DTD/svg11.dtd">
<svg viewBox="0 0 177 156" version="1.1" xmlns="http://www.w3.org/2000/svg" xmlns:xlink="http://www.w3.org/1999/xlink" xml:space="preserve" xmlns:serif="http://www.serif.com/" style="fill-rule:evenodd;clip-rule:evenodd;stroke-linecap:round;stroke-linejoin:round;stroke-miterlimit:1.5;">
    <g transform="matrix(1,0,0,1,-690,-3)">
        <g id="Wish" transform="matrix(1,0,0,1,-0.157781,-363.105)">
            <rect x="690.158" y="366.855" width="176.232" height="154.883" style="fill:none;"/>
            <g transform="matrix(1,0,0,1,307.3,2.48296)">
                <path d="M415.424,481.263C413.915,478.845 409.622,481.383 408.455,482.783C405.088,486.824 404.923,493.481 409.923,496.481C417.546,501.055 428.409,485.765 417.261,482.049" style="fill:none;stroke:black;stroke-width:2.7px;"/>
            </g>
            <g transform="matrix(1,0,0,1,307.3,2.48296)">
                <path d="M429.195,458.726C427.389,457.233 425.532,461.531 425.333,462.725C424.226,469.367 428.466,478.36 436.585,473.488C438.924,472.084 441.48,470.548 442.945,468.107C445.304,464.175 443.435,454.654 438.542,453.43C435.359,452.635 432.575,454.579 429.98,455.876" style="fill:none;stroke:black;stroke-width:2.7px;"/>
            </g>
            <g transform="matrix(1,0,0,1,307.3,2.48296)">
                <path d="M526.057,414.357C530.301,411.238 532.953,403.771 524.1,397.479C520.42,394.863 515.223,395.464 510.647,396.99C508.961,397.551 507.528,398.182 505.999,398.946C505.405,399.243 504.539,400.6 504.519,400.079C505.786,400.079 503.694,393.601 503.54,392.985C502.502,388.833 494.46,385.168 490.087,386.626C485.82,388.048 482.076,389.786 479.569,393.964C479.098,394.749 475.442,399.876 476.924,399.824C476.924,398.916 475.311,397.477 474.723,396.889C470.61,392.776 463.485,390.377 457.6,392.731C446.618,397.124 439.181,415.576 444.636,426.486C446.096,429.406 447.965,436.229 451.611,437.092C450.841,434.925 449.095,436.726 448.326,438.265C447.084,440.749 445.225,446.25 446.614,449.027C450.154,456.107 454.193,455.144 460.801,452.941C462.314,452.437 466.671,449.054 466.671,447.804C465.468,447.786 466.056,450.048 466.767,451.471C468.374,454.684 469.56,457.736 472.638,459.788C479.118,464.108 487.873,461.102 493.185,456.852C494.181,456.056 496.199,453.83 497.371,451.577C497.18,452.78 500.207,453.481 501.228,453.889C504.894,455.356 510.409,455.46 514.193,454.379C524.985,451.295 533.479,442.827 535.718,431.63C537.017,425.135 531.738,414.508 524.711,414.508" style="fill:none;stroke:black;stroke-width:2.7px;"/>
            </g>
        </g>
    </g>
</svg>
