<?xml version="1.0" encoding="UTF-8" standalone="no"?><!DOCTYPE svg PUBLIC "-//W3C//DTD SVG 1.1//EN" "http://www.w3.org/Graphics/SVG/1.1/DTD/svg11.dtd"><svg width="100%" height="100%" viewBox="0 0 600 600" version="1.1" xmlns="http://www.w3.org/2000/svg" xmlns:xlink="http://www.w3.org/1999/xlink" xml:space="preserve" xmlns:serif="http://www.serif.com/" style="fill-rule:evenodd;clip-rule:evenodd;stroke-linejoin:round;stroke-miterlimit:2;"><rect id="Artboard1" x="0" y="0" width="600" height="600" style="fill:none;"/><g id="Artboard11" serif:id="Artboard1"><path d="M113.278,227.649c-0.166,-0.315 -0.429,-0.583 -0.772,-0.753c-0.652,-0.364 -1.139,-0.205 -1.343,-0.161c-0.366,0.08 -2.05,1.582 -0.629,3.26c0.755,0.892 3.067,3.102 3.645,3.528l4.075,2.664l15.624,9.585c11.161,6.068 20.232,15.252 30.467,22.393c4.626,3.228 9.481,6.052 14.832,8.05c4.492,1.678 8.588,1.852 12.558,1.242c5.612,-0.863 10.958,-3.38 16.911,-5.176c9.174,-2.767 18.886,-5.519 28.175,-9.066c6.312,-2.41 12.431,-5.185 18.063,-8.573c3.945,-2.372 10.133,-5.813 16.198,-7.664c3.909,-1.193 7.751,-1.756 10.741,-0.731c0.946,0.326 1.499,1.238 1.964,2.38c0.73,1.79 1.069,4.151 1.227,6.795c0.621,10.438 -1.982,24.988 -2.192,29.655c-0.475,10.609 -1.438,20.137 -2.068,29.408c-0.291,4.279 -0.51,8.503 -0.584,12.753c-0.296,19.505 -2.903,33.703 -3.648,50.542c-0.18,4.077 -0.204,8.304 -0.109,12.794c0,0.886 0.72,1.605 1.606,1.605c0.886,0 1.606,-0.719 1.606,-1.605c0.193,-18.74 2.934,-32.807 4.267,-50.466c0.305,-4.041 0.515,-8.27 0.626,-12.779c0.103,-4.175 0.353,-8.325 0.666,-12.529c0.694,-9.3 1.71,-18.858 2.249,-29.503c0.241,-4.748 3.036,-19.548 2.357,-30.168c-0.438,-6.847 -2.654,-11.971 -6.519,-13.225c-3.774,-1.223 -8.586,-0.636 -13.481,0.898c-6.406,2.007 -12.991,5.56 -17.172,8.063c-5.419,3.244 -11.307,5.893 -17.378,8.193c-9.198,3.485 -18.815,6.17 -27.897,8.88c-5.742,1.713 -10.887,4.17 -16.298,4.986c-3.242,0.489 -6.585,0.348 -10.247,-1.031c-4.977,-1.874 -9.483,-4.529 -13.781,-7.545c-10.359,-7.27 -19.557,-16.574 -30.857,-22.758c-3.723,-1.992 -7.266,-4.436 -10.918,-6.616c-1.644,-0.981 -3.31,-1.908 -5.015,-2.733l-3.814,-2.07c-0.444,-0.266 -2.603,-2.074 -3.135,-2.522Zm0.201,0.98c0.024,0.453 -0.166,0.788 -0.451,1.036c0.108,-0.116 0.2,-0.249 0.273,-0.398c0.103,-0.205 0.161,-0.422 0.178,-0.638Z"/><path d="M86.836,311.184c-0.062,0.007 -0.124,0.021 -0.186,0.039c-11.126,3.164 -14.622,4.873 -12.983,5.127c-0.543,0.9 3.294,0.554 13.05,-2.312l0.587,-0.148c1.482,-0.382 6.725,-1.753 7.797,-1.9c3.27,-0.462 10.408,-2.397 16.122,-2.699c2.151,-0.113 4.088,-0.077 5.416,0.597c-0.105,0.25 -0.148,0.687 -0.36,1.012c-1.664,2.548 -5.499,6.212 -7.885,8.996c-1.339,1.562 -2.224,2.943 -2.373,3.805c-0.126,0.718 0.134,1.293 0.719,1.714c0.567,0.408 1.934,0.531 2.262,0.589c2.016,0.352 8.225,-1.068 12.877,-1.408c1.563,-0.114 2.921,-0.3 3.618,0.061c-0.143,0.238 -0.355,0.571 -0.57,0.838c-1.788,2.225 -5.421,5.41 -6.958,7.107c-0.696,0.768 -1.014,1.429 -1.057,1.744c-0.089,0.65 0.166,1.098 0.581,1.405c0.607,0.448 2.017,0.666 3.836,0.519c2.43,-0.197 5.782,-0.837 8.23,-0.978c0.722,-0.042 1.446,0.303 1.825,0.249c0.032,1.46 -0.594,2.987 -1.487,4.523c-2.526,4.34 -7.187,8.654 -8.917,11.769c-2.36,4.263 -3.417,9.971 -3.136,15.638c0.28,5.645 1.906,11.228 4.735,15.312c1.094,1.577 2.555,2.934 4.205,4.087c2.302,1.608 4.976,2.813 7.427,3.723c2.725,0.976 5.394,1.504 8.093,1.698c2.649,0.191 5.325,0.067 8.108,-0.255c0.964,-0.102 1.664,-0.968 1.562,-1.932c-0.102,-0.964 -0.967,-1.664 -1.932,-1.562c-2.558,0.245 -5.014,0.314 -7.44,0.094c-2.365,-0.216 -4.7,-0.716 -7.075,-1.615c-2.174,-0.794 -4.55,-1.842 -6.6,-3.249c-1.289,-0.884 -2.453,-1.904 -3.317,-3.118c-2.528,-3.547 -3.939,-8.443 -4.27,-13.387c-0.337,-5.018 0.424,-10.103 2.434,-13.926c1.64,-3.132 6.137,-7.535 8.566,-11.884c1.315,-2.354 2.055,-4.707 1.716,-6.892c-0.141,-0.922 -0.852,-1.689 -2.268,-1.932c-2.063,-0.354 -6.381,0.45 -9.688,0.826c-0.486,0.055 -0.943,0.123 -1.35,0.174c1.73,-1.747 4.51,-4.282 6.107,-6.199c1.449,-1.741 1.674,-3.389 1.2,-4.063c-0.667,-0.949 -2.271,-1.539 -4.46,-1.559c-4.492,-0.04 -11.92,1.897 -14.127,1.511l-0.383,-0.052c1.759,-2.95 8.774,-8.823 10.277,-11.938c0.777,-1.611 0.451,-2.828 -0.499,-3.552c-1.724,-1.32 -4.553,-1.836 -7.797,-1.692c-5.831,0.257 -13.073,2.481 -16.4,3.008c-1.061,0.172 -6.042,1.589 -7.832,2.087Z"/><path d="M65.322,326.219c-5.27,4.124 -8.555,13.452 -10.479,23.991c-2.602,14.261 -2.811,30.731 -2.232,38.809c2.07,24.536 6.308,47.519 16.901,65.979c10.666,18.587 27.668,32.618 54.794,39.265c4.939,1.209 9.577,1.876 14.238,2.047c4.642,0.17 9.308,-0.147 14.318,-0.928c0.975,-0.146 1.649,-1.057 1.503,-2.033c-0.147,-0.975 -1.058,-1.649 -2.033,-1.503c-4.774,0.688 -9.215,0.949 -13.628,0.731c-4.406,-0.216 -8.783,-0.914 -13.439,-2.121c-25.655,-6.647 -41.503,-20.18 -51.569,-37.85c-10.228,-17.954 -14.576,-40.162 -16.75,-63.968c-0.818,-7.857 -1.244,-23.939 0.964,-37.906c1.544,-9.767 4.299,-18.503 9.105,-22.383c0.588,-0.467 0.686,-1.324 0.218,-1.912c-0.467,-0.588 -1.324,-0.686 -1.911,-0.218Z"/><path d="M154.287,216.279c1.984,-6.381 4.668,-12.737 7.685,-18.906c4.702,-9.615 10.214,-18.777 15.176,-26.879c3.454,-5.641 7.023,-11.218 10.718,-16.71c3.692,-5.488 7.511,-10.89 11.47,-16.184c2.265,-3.029 4.638,-5.997 7.13,-8.86c2.483,-2.851 5.084,-5.598 7.823,-8.189c12.323,-11.858 23.466,-13.769 34.283,-10.834c17.073,4.634 33.253,20.638 51.649,28.672c9.392,4.145 40.413,7.528 72.231,7.893c28.326,0.326 57.278,-1.735 72.167,-7.708c11.941,-4.764 32.447,-14.343 48.26,-16.032c8.007,-0.856 14.78,0.233 18.114,5.695c2.972,4.877 4.38,12.739 5.07,22.228c2.087,28.717 -2.696,71.861 3.568,95.593c17.42,66.088 17.984,109.858 4.001,135.159c-8.832,15.981 -23.641,24.107 -43.512,25.831c-10.683,0.927 -22.806,0.077 -36.261,-2.498c-10.695,-1.937 -25.672,-3.383 -37.717,-8.662c-7.713,-3.381 -14.22,-8.334 -17.258,-16.252c-1.122,-2.934 -2.094,-6.8 -2.47,-10.699c-0.362,-3.751 -0.209,-7.536 0.977,-10.481c1.691,-4.169 5.807,-7.59 7.125,-11.448c0.745,-2.179 0.794,-4.474 -0.505,-7.025c-0.792,-1.556 -2.326,-2.655 -4.28,-3.333c-3.209,-1.112 -7.639,-1.098 -9.851,-1.524c-3.848,-0.76 -16.906,-1.254 -25.795,-3.772c-3.996,-1.132 -7.246,-2.359 -7.488,-4.75c-0.12,-1.187 0.302,-2.599 0.86,-4.046c0.933,-2.415 2.301,-4.886 3.06,-6.713c0.64,-1.539 2.823,-2.347 5.244,-2.999c3.967,-1.068 8.742,-1.327 11.022,-1.328c12.967,-0.008 25.85,1.978 38.815,2.669c5.619,0.299 11.252,0.358 16.914,-0.081c2.58,-0.199 4.51,-1.641 5.931,-3.68c1.783,-2.56 2.724,-6.108 3.305,-8.668c1.093,-4.821 1.366,-13.921 3.649,-21.125c1.448,-4.566 3.652,-8.401 7.804,-9.277c5.055,-1.067 8.095,3.395 9.928,9.046c2.739,8.444 2.642,19.904 0.228,23.924c-0.444,0.739 -0.205,1.699 0.534,2.143c0.739,0.444 1.699,0.204 2.143,-0.534c2.676,-4.451 3.109,-17.145 0.083,-26.5c-2.392,-7.394 -6.952,-12.556 -13.566,-11.167c-4.113,0.864 -6.912,3.827 -8.803,7.858c-3.571,7.614 -3.807,19.212 -5.108,24.926c-0.507,2.223 -1.268,5.325 -2.818,7.546c-0.865,1.24 -1.987,2.198 -3.556,2.318c-5.522,0.421 -11.016,0.355 -16.495,0.057c-13.023,-0.709 -25.962,-2.714 -38.988,-2.722c-2.85,-0.002 -9.299,0.387 -13.848,2.043c-2.667,0.97 -4.685,2.439 -5.456,4.286c-0.904,2.163 -2.639,5.219 -3.554,8.037c-0.5,1.543 -0.757,3.03 -0.63,4.317c0.332,3.367 4.254,6.025 9.872,7.638c8.97,2.574 22.151,3.165 26.034,3.951c1.837,0.381 5.28,0.441 8.168,1.172c1.469,0.372 2.829,0.835 3.365,1.926c0.744,1.515 0.708,2.868 0.247,4.145c-1.366,3.789 -5.537,7.065 -7.285,11.15c-1.216,2.824 -1.691,6.319 -1.648,9.934c0.061,5.111 1.174,10.463 2.556,14.362c3.272,9.261 10.536,15.312 19.36,19.468c12.29,5.789 27.69,7.795 38.679,10.098c14.105,2.812 26.835,3.855 38.052,2.878c22.234,-1.938 38.626,-11.511 48.341,-29.485c14.173,-26.222 13.812,-71.384 -4.849,-139.339c-6.43,-23.448 -1.996,-66.234 -4.331,-94.66c-0.837,-10.195 -2.567,-18.601 -5.811,-23.814c-4.04,-6.502 -11.971,-8.295 -21.54,-7.203c-16.081,1.836 -36.913,11.64 -49.035,16.567c-14.632,5.916 -43.119,7.963 -70.987,7.684c-31.317,-0.315 -61.861,-3.56 -71.106,-7.638c-18.495,-8.241 -34.755,-24.363 -51.921,-29.234c-11.84,-3.36 -24.133,-1.639 -37.865,11.169c-2.827,2.683 -5.514,5.523 -8.073,8.477c-2.548,2.943 -4.969,5.997 -7.28,9.111c-3.98,5.359 -7.817,10.826 -11.526,16.379c-3.705,5.55 -7.282,11.185 -10.744,16.885c-4.987,8.211 -10.523,17.498 -15.243,27.238c-3.075,6.345 -5.804,12.882 -7.818,19.442c-0.288,0.932 0.235,1.923 1.167,2.212c0.933,0.288 1.924,-0.235 2.213,-1.168Z"/><path d="M226.073,176.795l12.628,4.294c3.063,0.885 6.135,1.668 9.232,2.347c3.089,0.677 6.201,1.25 9.338,1.765c4.222,0.691 17.157,3.612 27.099,4.78c5.984,0.704 10.982,0.59 12.926,-0.539c1.713,-1.001 3.109,-2.37 4.296,-3.965c2.259,-3.031 3.702,-6.911 6.493,-9.398c0.749,-0.634 0.843,-1.758 0.209,-2.507c-0.634,-0.75 -1.758,-0.843 -2.507,-0.209c-3.104,2.493 -5.001,6.422 -7.497,9.581c-0.891,1.128 -1.856,2.158 -3.098,2.874c-1.553,0.902 -5.554,0.551 -10.337,0.001c-9.878,-1.138 -22.741,-3.963 -26.937,-4.63c-3.073,-0.486 -6.118,-1.045 -9.149,-1.673c-3.023,-0.627 -6.033,-1.322 -9.03,-2.134c-1.11,-0.294 -4.189,-1.098 -7.491,-2.153c-1.631,-0.522 -3.317,-1.108 -4.845,-1.712c-0.904,-0.367 -1.937,0.069 -2.304,0.974c-0.367,0.905 0.07,1.937 0.974,2.304Z"/><path d="M379.229,190.142c0.545,-0.125 0.22,-1.959 0.492,-3.289c0.253,-1.241 0.397,-2.91 0.608,-4.105c0.657,-0.22 1.15,-0.818 1.203,-1.551c-0.051,-1.469 -0.556,-2.068 -0.727,-2.207c-0.432,-0.35 -1.897,-0.913 -2.83,0.798c-0.525,0.964 -1.599,4.538 -2.201,7.272c-0.427,1.942 -0.475,3.562 -0.341,3.994c0.414,1.343 1.526,2.326 3.085,2.885c2.152,0.771 5.294,0.694 6.667,0.696c6.047,0.003 12.186,-0.7 18.352,-1.788c13.835,-2.442 27.818,-6.765 41.338,-8.466c0.961,-0.116 1.646,-0.991 1.53,-1.951c-0.117,-0.961 -0.991,-1.646 -1.952,-1.53c-13.591,1.585 -27.683,5.72 -41.584,8.116c-5.947,1.025 -11.856,1.745 -17.684,1.747c-0.851,0.001 -2.511,0.069 -4.052,-0.154c-0.746,-0.108 -1.561,-0.07 -1.904,-0.467Zm1.332,-8.37c0.419,-0.14 0.901,-0.351 0.506,-0.512c-0.213,-0.087 -0.376,0.119 -0.506,0.512Z"/><path d="M378.792,206.01c-0.401,-0.192 -0.875,-0.232 -1.328,-0.078c-1.55,1.305 -1.384,2.122 -1.069,2.554c0.111,0.152 1.091,1.052 3.026,1.149c3.725,0.185 13.156,-0.285 15.426,-0.254c6.921,0.003 13.851,0.175 20.77,-0.023c4.649,-0.132 9.286,-0.459 13.915,-0.95c0.977,-0.085 1.701,-0.947 1.616,-1.924c-0.085,-0.976 -0.947,-1.701 -1.923,-1.616c-3.418,0.227 -6.837,0.303 -10.257,0.375c-8.037,0.168 -16.083,0.091 -24.121,0.079c-2.269,0.03 -11.688,0.427 -15.408,0.672c-0.234,0.016 -0.46,0.011 -0.647,0.016Zm0.133,3.125c-0.1,0.058 -0.207,0.107 -0.321,0.146c0.156,0.007 0.253,-0.062 0.321,-0.146Zm0.696,-0.748l0.008,-0.019c-0.031,0.108 -0.087,0.209 -0.18,0.299l0.09,-0.131c0.027,-0.05 0.054,-0.099 0.082,-0.149Z"/><path d="M375.843,218.839c5.159,2.218 10.603,3.874 16.191,5.217c5.054,1.216 10.214,2.214 15.378,3.139c7.692,1.378 15.385,2.615 22.646,4.747c1.07,0.325 2.203,-0.281 2.528,-1.352c0.324,-1.071 -0.282,-2.203 -1.353,-2.528c-8.407,-2.618 -17.368,-4.268 -26.325,-5.846c-5.835,-1.028 -11.671,-1.986 -17.317,-3.406c-3.557,-0.895 -7.042,-1.938 -10.41,-3.245c-0.903,-0.369 -1.937,0.064 -2.306,0.968c-0.37,0.903 0.064,1.937 0.968,2.306Z"/><path d="M238.429,202.447c-0.073,0.841 0.195,0.639 0.528,0.073l-0.358,-0.06l-0.051,-0.015c0.172,-0.007 0.345,-0.041 0.512,-0.102l-0.009,0.017l-0.094,0.16c1.015,0.165 2.76,0.507 2.853,0.535l6.204,1.802c3.073,0.669 6.193,1.131 9.337,1.437c4.636,0.45 9.316,0.581 13.934,0.78c0.896,0.05 1.664,-0.638 1.714,-1.533c0.049,-0.896 -0.638,-1.664 -1.534,-1.714c-4.555,-0.31 -9.167,-0.597 -13.739,-1.112c-3.002,-0.339 -5.989,-0.767 -8.925,-1.424l-5.993,-1.682c-0.123,-0.035 -2.696,-0.521 -3.716,-0.658c-0.309,-0.041 -0.534,-0.053 -0.636,-0.05c-1.147,0.034 -1.518,0.833 -1.622,1.085c-0.192,0.463 -0.239,0.988 0.085,1.558c0.317,0.568 0.903,0.893 1.51,0.903Zm0.119,-0.002c-0.059,-0.015 -0.116,-0.04 -0.118,-0.008l-0.001,0.01l0.057,0.002l0.062,-0.004Z"/><path d="M235.324,221.092c0.547,0.056 1.669,-0.52 2.135,-0.606l9.135,-1.405l25.219,-4.362c1.051,-0.197 1.743,-1.211 1.545,-2.262c-0.198,-1.05 -1.212,-1.743 -2.262,-1.545l-25.152,4.192l-9.239,1.763c-0.752,0.175 -2.394,0.452 -3.081,0.767c-0.53,0.243 -0.86,0.56 -1.028,0.823c-0.505,0.793 -0.841,1.914 0.732,2.784c0.65,0.379 1.443,0.296 1.996,-0.149Z"/><path d="M311.213,277.208c0.411,-0.584 2.02,-1.412 2.554,-1.861c1.726,-1.558 3.623,-2.792 5.634,-3.808c2.038,-1.029 4.2,-1.824 6.463,-2.423c6.153,-1.637 12.619,-2.106 18.461,-0.732c2.934,0.69 5.686,1.879 8.196,3.591c2.364,1.612 4.549,3.655 6.352,6.359c0.552,0.891 1.723,1.167 2.614,0.615c0.892,-0.552 1.167,-1.723 0.616,-2.614c-1.913,-3.337 -4.273,-6 -7.002,-8.005c-2.92,-2.145 -6.254,-3.518 -9.758,-4.324c-6.527,-1.501 -13.752,-0.899 -20.596,1.014c-2.546,0.715 -4.985,1.632 -7.257,2.852c-2.301,1.236 -4.435,2.768 -6.371,4.644c-0.863,0.899 -2.709,2.538 -2.99,3.637c-0.32,1.249 -0.26,2.16 0.572,2.495c0.28,0.112 0.505,0.413 0.945,0.356c0.723,0.171 1.45,-0.277 1.622,-1.001c0.065,-0.275 0.041,-0.55 -0.055,-0.795Zm-0.068,0.119c-0.054,0.125 -0.036,0.235 0.081,0.322c0.111,0.084 -0.074,-0.192 -0.081,-0.322Zm-0.174,-0.519c0.084,0.095 0.154,0.202 0.207,0.318c-0.002,-0.132 -0.08,-0.227 -0.207,-0.318Z"/><path d="M368.065,226.707c0.861,0.427 1.576,1.052 2.286,1.688c0.873,0.782 1.72,1.608 2.561,2.413c0.734,0.734 1.926,0.734 2.66,-0c0.734,-0.735 0.734,-1.927 -0,-2.661c-1.043,-1.087 -2.04,-2.273 -3.223,-3.218c-0.895,-0.715 -1.885,-1.293 -2.973,-1.708c-0.051,-0.016 -0.484,-0.341 -0.59,-0.176c-0.773,-0.441 -1.771,-0.239 -2.306,0.498c-0.637,0.715 -0.5,1.505 0.164,2.348c0.203,0.259 1.236,1.138 1.421,0.816Z"/><path d="M270.052,230.74c0.39,-0.442 0.74,-0.905 1.173,-1.302c1.724,-1.581 3.783,-2.731 5.718,-4.043c3.662,-2.482 7.392,-4.892 11.15,-7.265c0.821,-0.513 1.07,-1.595 0.558,-2.415c-0.513,-0.821 -1.595,-1.071 -2.415,-0.558c-3.835,2.372 -7.746,4.63 -11.378,7.265c-1.973,1.432 -3.711,3.146 -5.638,4.64c-0.49,0.38 -1.017,0.685 -1.526,1.041c-0.727,0.651 -0.79,1.77 -0.139,2.498c0.651,0.727 1.77,0.79 2.497,0.139Z"/><path d="M131.877,229.356c0.876,1.363 2.332,2.558 4.042,3.66c3.194,2.058 7.371,3.77 9.785,5.617c3.067,2.321 5.778,4.42 8.343,6.328c4.481,3.334 8.41,6.199 12.334,9.516c3.928,3.32 7.903,7.019 12.577,11.875c0.542,0.58 1.453,0.611 2.033,0.07c0.581,-0.542 0.612,-1.453 0.07,-2.033c-5.917,-6.542 -10.664,-11.173 -15.776,-15.393c-5.079,-4.193 -10.513,-7.967 -17.608,-13.076c-2.561,-1.77 -6.943,-3.278 -10.28,-5.28c-1.365,-0.819 -2.541,-1.718 -3.243,-2.774c-0.411,-0.628 -1.255,-0.804 -1.884,-0.393c-0.628,0.411 -0.805,1.255 -0.393,1.883Z"/><path d="M159.138,230.52c0.38,0.923 1.343,2.289 2.566,3.761c2.244,2.701 5.36,5.842 6.698,7.18c5.024,5.039 8.341,7.228 11.687,10.394c2.021,1.912 4.041,4.199 6.494,7.73c0.466,0.66 1.379,0.818 2.039,0.352c0.66,-0.466 0.817,-1.379 0.352,-2.039c-2.649,-3.693 -4.837,-6.061 -6.991,-8.063c-3.357,-3.118 -6.646,-5.302 -11.657,-10.298c-1.137,-1.137 -3.591,-3.607 -5.652,-5.966c-1.392,-1.594 -2.619,-3.114 -3.019,-4.086c-0.286,-0.695 -1.081,-1.027 -1.776,-0.741c-0.694,0.286 -1.026,1.081 -0.741,1.776Z"/><path d="M180.674,275.702l29.64,-12.043c8.641,-2.759 17.998,-8.986 27.161,-13.022c3.973,-1.75 7.893,-3.116 11.748,-3.441c0.838,-0.055 1.474,-0.781 1.418,-1.619c-0.056,-0.838 -0.782,-1.473 -1.62,-1.418c-4.207,0.208 -8.557,1.455 -12.919,3.272c-9.13,3.8 -18.343,10.051 -26.895,12.722c-1.613,0.511 -5.077,1.878 -9.128,3.546c-7.767,3.197 -17.73,7.498 -20.734,8.724c-0.904,0.367 -1.341,1.399 -0.974,2.304c0.367,0.905 1.399,1.342 2.303,0.975Z"/></g></svg>