<?xml version="1.0" encoding="UTF-8" standalone="no"?>
<!DOCTYPE svg PUBLIC "-//W3C//DTD SVG 1.1//EN" "http://www.w3.org/Graphics/SVG/1.1/DTD/svg11.dtd">
<svg width="100%" height="100%" viewBox="0 0 1024 768" version="1.1" xmlns="http://www.w3.org/2000/svg" xmlns:xlink="http://www.w3.org/1999/xlink" xml:space="preserve" xmlns:serif="http://www.serif.com/" style="fill-rule:evenodd;clip-rule:evenodd;stroke-linecap:round;stroke-linejoin:round;stroke-miterlimit:1.5;">
    <rect id="Artboard1" x="0" y="0" width="1024" height="768" style="fill:none;"/>
    <g id="Artboard11" serif:id="Artboard1">
        <path d="M30.37,568.656C24.587,546.506 16.91,364.054 11.086,312.386C8.493,289.371 7.224,280.041 8.508,257.002C9.759,234.536 12.316,224.388 16.551,202.238C25.579,155.017 30.304,101.511 63.967,64.07C110.985,11.778 189.229,13.466 253.517,17.644C275.216,19.054 296.854,21.492 318.582,22.345C364.745,24.156 379.929,21.111 426.04,20.295C462.057,19.658 498.087,20.001 534.105,19.443C566.558,18.94 598.991,17.278 631.447,17.113C657.999,16.977 684.541,18.246 711.092,18.54C730.898,18.759 750.709,18.351 770.514,18.649C788.97,18.928 807.43,19.355 825.867,20.27C836.729,20.809 847.582,21.705 858.38,23.008C901.18,28.172 957.045,38.409 982.874,77.983C989.67,88.395 992.87,98.406 995.192,110.855C998.79,130.147 996.962,157.161 997.408,174.756C998.02,198.863 1001.44,265.682 1001.13,298.397C1000.7,345.505 994.744,392.351 995.073,439.475C995.334,476.806 997.344,476.534 999.015,513.731C1000.59,548.753 1001.83,585.505 989.465,619.043C983.818,634.353 976.987,646.614 962.876,655.26C933.97,672.973 913.55,679.82 879.516,693.176C847.312,705.813 815.079,714.671 780.706,719.025C724.35,726.165 667.549,721.858 611.174,717.685C578.763,715.286 528.147,711.605 492.198,706.803C437.501,699.497 383.718,687.693 328.432,684.972C268.368,682.017 207.809,691.371 148,682.454C112.391,677.145 81.413,666.286 60.052,636.297C45.945,616.492 36.477,592.045 30.37,568.656Z" style="fill:none;stroke:black;stroke-width:1px;"/>
    </g>
</svg>
